<?xml version="1.0" encoding="UTF-8" standalone="no"?>
<svg
   xmlns:dc="http://purl.org/dc/elements/1.1/"
   xmlns:cc="http://creativecommons.org/ns#"
   xmlns:rdf="http://www.w3.org/1999/02/22-rdf-syntax-ns#"
   xmlns:svg="http://www.w3.org/2000/svg"
   xmlns="http://www.w3.org/2000/svg"
   xmlns:sodipodi="http://sodipodi.sourceforge.net/DTD/sodipodi-0.dtd"
   xmlns:inkscape="http://www.inkscape.org/namespaces/inkscape"
   version="1.1"
   x="0px"
   y="0px"
   viewBox="0 0 87.837 125"
   enable-background="new 0 0 87.837 100"
   xml:space="preserve"
   id="svg2"
   inkscape:version="0.91 r13725"
   sodipodi:docname="homeless.svg"><metadata
     id="metadata24"><rdf:RDF><cc:Work
         rdf:about=""><dc:format>image/svg+xml</dc:format><dc:type
           rdf:resource="http://purl.org/dc/dcmitype/StillImage" /><dc:title></dc:title></cc:Work></rdf:RDF></metadata><defs
     id="defs22" /><sodipodi:namedview
     pagecolor="#ffffff"
     bordercolor="#666666"
     borderopacity="1"
     objecttolerance="10"
     gridtolerance="10"
     guidetolerance="10"
     inkscape:pageopacity="0"
     inkscape:pageshadow="2"
     inkscape:window-width="1262"
     inkscape:window-height="719"
     id="namedview20"
     showgrid="false"
     inkscape:zoom="3.7814736"
     inkscape:cx="8.0828085"
     inkscape:cy="62.5"
     inkscape:window-x="0"
     inkscape:window-y="0"
     inkscape:window-maximized="0"
     inkscape:current-layer="svg2" /><path
     fill="#010101"
     d="M6.8,73.791c3.743-0.008,6.784-3.05,6.802-6.802c-0.019-3.755-3.06-6.796-6.802-6.804  c-3.763,0.008-6.805,3.049-6.8,6.804C-0.006,70.741,3.037,73.783,6.8,73.791L6.8,73.791z"
     id="path4"
     style="fill:#003366;fill-opacity:1" /><path
     fill="#010101"
     d="M32.291,20.221c-3.604,5.384-10.708,6.951-15.862,3.5c-5.156-3.451-6.414-10.615-2.809-15.999  c1.292-1.934,3.042-3.364,4.983-4.257C12.829,2.878,6.931,5.413,3.478,10.573c-4.981,7.441-2.987,17.514,4.455,22.496  c7.442,4.981,17.515,2.987,22.496-4.456c2.029-3.031,2.883-6.497,2.7-9.879C32.884,19.241,32.613,19.739,32.291,20.221z"
     id="path6"
     style="fill:#003366;fill-opacity:1" /><path
     fill="#010101"
     d="M81.821,10.067H67.443V0H51.075v24.393H39.521v31.144H53.25c3.651-0.01,5.811,2.301,5.876,5.426h0.039v0.286  h22.69L81.821,10.067z M51.78,48.125h-5.411v-5.414h5.411V48.125z M51.78,37.182h-5.411V31.77h5.411V37.182z M64.374,48.125h-5.411  v-5.414h5.411V48.125z M64.374,37.182h-5.411V31.77h5.411V37.182z M75.867,37.181h-5.412V31.77h5.412V37.181z M75.867,25.924h-5.412  v-5.412h5.412V25.924z"
     id="path8"
     style="fill:#003366;fill-opacity:1" /><g
     id="g10"
     style="fill:#003366;fill-opacity:1"><polygon
       fill="#010101"
       points="57.59,80.659 61.318,84.201 73.804,84.201 73.804,100 81.821,100 81.821,76.686 57.59,76.686  "
       id="polygon12"
       style="fill:#003366;fill-opacity:1" /><path
       fill="#010101"
       d="M83.969,65.869l-28.338,0.005v-0.5c0.006-3.208-2.176-5.593-5.891-5.582H19.566l-0.002,0.042   c-2.074,0.072-3.732,1.766-3.732,3.854v5.091v7.907H10.21l-8.044-0.004L2.243,100h7.97V84.201h5.621v3.184v5.091   c0,2.137,1.73,3.871,3.87,3.871c2.14,0,3.87-1.734,3.87-3.871v-5.091v-3.184h24.444c0.24,0.805,0.723,1.506,1.379,2.001   l-0.039,0.042l13.896,12.734c1.573,1.445,4.021,1.345,5.468-0.229c1.449-1.576,1.342-4.021-0.23-5.469l-7.012-6.425l-0.038-0.002   l-5.777-5.318l-0.03-7.92v-0.002l28.328-0.006c2.136,0.004,3.87-1.725,3.876-3.861C87.837,67.604,86.104,65.874,83.969,65.869z    M47.845,76.686H23.573V73.74h24.272V76.686z"
       id="path14"
       style="fill:#003366;fill-opacity:1" /></g></svg>