<?xml version="1.0" encoding="UTF-8" standalone="no"?>
<svg
   xmlns:dc="http://purl.org/dc/elements/1.1/"
   xmlns:cc="http://creativecommons.org/ns#"
   xmlns:rdf="http://www.w3.org/1999/02/22-rdf-syntax-ns#"
   xmlns:svg="http://www.w3.org/2000/svg"
   xmlns="http://www.w3.org/2000/svg"
   xmlns:sodipodi="http://sodipodi.sourceforge.net/DTD/sodipodi-0.dtd"
   xmlns:inkscape="http://www.inkscape.org/namespaces/inkscape"
   version="1.1"
   x="0px"
   y="0px"
   viewBox="0 0 90 112.5"
   style="enable-background:new 0 0 90 90;"
   xml:space="preserve"
   id="svg2"
   inkscape:version="0.91 r13725"
   sodipodi:docname="jail_cell.svg"><metadata
     id="metadata18"><rdf:RDF><cc:Work
         rdf:about=""><dc:format>image/svg+xml</dc:format><dc:type
           rdf:resource="http://purl.org/dc/dcmitype/StillImage" /><dc:title></dc:title></cc:Work></rdf:RDF></metadata><defs
     id="defs16" /><sodipodi:namedview
     pagecolor="#ffffff"
     bordercolor="#666666"
     borderopacity="1"
     objecttolerance="10"
     gridtolerance="10"
     guidetolerance="10"
     inkscape:pageopacity="0"
     inkscape:pageshadow="2"
     inkscape:window-width="1376"
     inkscape:window-height="727"
     id="namedview14"
     showgrid="false"
     inkscape:zoom="4.2687294"
     inkscape:cx="21.519835"
     inkscape:cy="56.25"
     inkscape:window-x="0"
     inkscape:window-y="0"
     inkscape:window-maximized="0"
     inkscape:current-layer="svg2" /><style
     type="text/css"
     id="style4">
	.st0{fill:none;stroke:#000000;stroke-width:6.7515;stroke-linecap:round;stroke-miterlimit:10;}
	.st1{fill:none;stroke:#000000;stroke-width:6.7515;stroke-linecap:round;stroke-linejoin:round;stroke-miterlimit:10;}
</style><g
     id="g6"
     style="fill:#003366;fill-opacity:1"><path
       d="M86.6,69.1h-4.8V19.6h4.8c1.9,0,3.4-1.5,3.4-3.4s-1.5-3.4-3.4-3.4H6.5c-1.9,0-3.4,1.5-3.4,3.4s1.5,3.4,3.4,3.4h5.8v49.5   H6.5c-1.9,0-3.4,1.5-3.4,3.4s1.5,3.4,3.4,3.4h80.1c1.9,0,3.4-1.5,3.4-3.4S88.5,69.1,86.6,69.1z M75,69.1h-8.9V19.6H75V69.1z    M50.5,19.6h8.9v49.5h-8.9V19.6z M43.7,69.1h-8.9V19.6h8.9V69.1z M19.1,19.6H28v49.5h-8.9V19.6z"
       id="path8"
       style="fill:#003366;fill-opacity:1" /></g></svg>