<svg xmlns="http://www.w3.org/2000/svg" xmlns:xlink="http://www.w3.org/1999/xlink" version="1.1" x="0px" y="0px" viewBox="0 0 90 112.5" style="enable-background:new 0 0 90 90;" xml:space="preserve"><style type="text/css">
	.st0{fill:none;stroke:#000000;stroke-width:6.7515;stroke-linecap:round;stroke-miterlimit:10;}
	.st1{fill:none;stroke:#000000;stroke-width:6.7515;stroke-linecap:round;stroke-linejoin:round;stroke-miterlimit:10;}
</style><g><path d="M86.6,69.1h-4.8V19.6h4.8c1.9,0,3.4-1.5,3.4-3.4s-1.5-3.4-3.4-3.4H6.5c-1.9,0-3.4,1.5-3.4,3.4s1.5,3.4,3.4,3.4h5.8v49.5   H6.5c-1.9,0-3.4,1.5-3.4,3.4s1.5,3.4,3.4,3.4h80.1c1.9,0,3.4-1.5,3.4-3.4S88.5,69.1,86.6,69.1z M75,69.1h-8.9V19.6H75V69.1z    M50.5,19.6h8.9v49.5h-8.9V19.6z M43.7,69.1h-8.9V19.6h8.9V69.1z M19.1,19.6H28v49.5h-8.9V19.6z"/></g><text x="0" y="105" fill="#000000" font-size="5px" font-weight="bold" font-family="'Helvetica Neue', Helvetica, Arial-Unicode, Arial, Sans-serif">Created by Martin Turner</text><text x="0" y="110" fill="#000000" font-size="5px" font-weight="bold" font-family="'Helvetica Neue', Helvetica, Arial-Unicode, Arial, Sans-serif">from the Noun Project</text></svg>