<?xml version="1.0" encoding="UTF-8" standalone="no"?>
<svg
   xmlns:dc="http://purl.org/dc/elements/1.1/"
   xmlns:cc="http://creativecommons.org/ns#"
   xmlns:rdf="http://www.w3.org/1999/02/22-rdf-syntax-ns#"
   xmlns:svg="http://www.w3.org/2000/svg"
   xmlns="http://www.w3.org/2000/svg"
   xmlns:sodipodi="http://sodipodi.sourceforge.net/DTD/sodipodi-0.dtd"
   xmlns:inkscape="http://www.inkscape.org/namespaces/inkscape"
   version="1.1"
   x="0px"
   y="0px"
   viewBox="0 0 75.641 59.347500000000004"
   enable-background="new 0 0 75.641 47.478"
   xml:space="preserve"
   id="svg2"
   inkscape:version="0.91 r13725"
   sodipodi:docname="tow_truck.svg"><metadata
     id="metadata26"><rdf:RDF><cc:Work
         rdf:about=""><dc:format>image/svg+xml</dc:format><dc:type
           rdf:resource="http://purl.org/dc/dcmitype/StillImage" /><dc:title /></cc:Work></rdf:RDF></metadata><defs
     id="defs24" /><sodipodi:namedview
     pagecolor="#ffffff"
     bordercolor="#666666"
     borderopacity="1"
     objecttolerance="10"
     gridtolerance="10"
     guidetolerance="10"
     inkscape:pageopacity="0"
     inkscape:pageshadow="2"
     inkscape:window-width="1329"
     inkscape:window-height="725"
     id="namedview22"
     showgrid="false"
     inkscape:zoom="5.6436737"
     inkscape:cx="19.437152"
     inkscape:cy="34.636485"
     inkscape:window-x="0"
     inkscape:window-y="0"
     inkscape:window-maximized="0"
     inkscape:current-layer="svg2" /><g
     id="g4"
     style="fill:#003366;fill-opacity:1"><path
       fill="#000000"
       d="M60.233,34.152c-3.68,0-6.665,2.982-6.665,6.665c0,3.679,2.985,6.66,6.665,6.66s6.66-2.981,6.66-6.66   C66.893,37.135,63.913,34.152,60.233,34.152z M60.233,43.68c-1.583,0-2.867-1.281-2.867-2.862c0-1.583,1.284-2.866,2.867-2.866   c1.581,0,2.863,1.283,2.863,2.866C63.096,42.398,61.814,43.68,60.233,43.68z"
       id="path6"
       style="fill:#003366;fill-opacity:1" /><path
       fill="#000000"
       d="M66.472,26.742c0,0-13.341,0-21.311,0c-0.015-5.052-0.031-10.299-0.027-13.482   c0-1.923-2.206-2.064-2.206-2.064s-12.602,0-12.602,0c-3.372,0-5.269,2.132-5.269,2.132l-7.696,8.816   c0,0-12.452,2.188-14.803,3.896c-1.211,1.603-1.425,7.521-1.425,7.521h5.343c1.652,0,2.059-0.028,2.377-0.057   c1.257-0.737,2.716-1.167,4.279-1.167c2.69,0,5.082,1.256,6.634,3.21c1.104,1.391,1.778,3.136,1.829,5.04H29.1h4.074h11.962   c0.005,0.039,0.009,0.035,0.012,0h6.617c0.123-4.579,3.862-8.25,8.468-8.25s8.34,3.671,8.463,8.25h3.888   c0,0,2.838-0.117,2.838-4.007c0-0.37,0-5.302,0-5.302L66.472,26.742z M4.856,32.563H2.705c-0.062-0.604,0.565-4.835,0.759-5.188   c0.193-0.352,2.417-0.08,2.417-0.08L4.856,32.563z M40.303,20.936c0,0.755-0.611,1.367-1.367,1.367H25.051   c-2.271,0-2.485-0.787-1.631-2.139l3.774-5.209c0.926-1.054,2.521-1.369,3.275-1.369h8.467c0.756,0,1.367,0.614,1.367,1.369V20.936   z"
       id="path8"
       style="fill:#003366;fill-opacity:1" /><path
       fill="#000000"
       d="M0.17,35.548c-0.712,2.741,0.966,4.743,2.155,5.04c0.324,0,1.161,0,2.34,0   c0.052-1.904,0.726-3.649,1.832-5.04H0.17z"
       id="path10"
       style="fill:#003366;fill-opacity:1" /><path
       fill="#000000"
       d="M13.134,34.152c-3.681,0-6.664,2.982-6.664,6.665c0,3.679,2.983,6.66,6.664,6.66   c3.68,0,6.659-2.981,6.659-6.66C19.793,37.135,16.814,34.152,13.134,34.152z M13.134,43.989c-1.754,0-3.177-1.421-3.177-3.172   c0-1.754,1.423-3.175,3.177-3.175c1.752,0,3.172,1.421,3.172,3.175C16.306,42.568,14.886,43.989,13.134,43.989z"
       id="path12"
       style="fill:#003366;fill-opacity:1" /><path
       fill="#000000"
       d="M40.367,8.155c0-0.597-0.342-1.081-0.764-1.081h-4.275c-0.421,0-0.763,0.484-0.763,1.081v1.607h5.802V8.155   z"
       id="path14"
       style="fill:#003366;fill-opacity:1" /><path
       fill="#000000"
       d="M74.971,20.866c-0.501-0.154-1.032,0.127-1.187,0.628c-0.211,0.682-0.789,1.22-1.542,1.338h0.001   c-0.102,0.016-0.202,0.023-0.302,0.023c-0.927,0-1.75-0.678-1.896-1.626c-0.017-0.103-0.023-0.203-0.023-0.302   c0-0.927,0.678-1.749,1.625-1.896c0.251-0.039,0.472-0.173,0.621-0.378c0.148-0.205,0.209-0.456,0.17-0.706   c0-0.001-0.08-0.506-0.174-1.111c0.318-0.331,0.487-0.797,0.411-1.285c-0.069-0.439-0.157-0.995-0.227-1.44   c-0.035-0.223-0.065-0.418-0.087-0.558c-0.012-0.07-0.021-0.126-0.026-0.165l-0.007-0.045l-0.003-0.014l0,0   c0-0.003-0.001-0.007-0.003-0.011c-0.001-0.015-0.004-0.03-0.008-0.048c-0.001-0.003-0.002-0.006-0.003-0.009   c-0.01-0.05-0.022-0.106-0.047-0.181c-0.002-0.003-0.003-0.007-0.005-0.01c-0.004-0.014-0.011-0.026-0.016-0.04   c-0.003-0.006-0.006-0.013-0.009-0.02c-0.007-0.018-0.014-0.036-0.022-0.053c-0.014-0.035-0.029-0.067-0.051-0.107   c-0.017-0.03-0.034-0.058-0.052-0.086c-0.02-0.032-0.042-0.063-0.063-0.093c-0.009-0.012-0.016-0.024-0.024-0.035   c-0.009-0.012-0.012-0.02-0.021-0.032C72.001,12.603,72,12.602,71.999,12.6c-0.005-0.006-0.012-0.011-0.017-0.017   c-0.012-0.015-0.03-0.03-0.043-0.045c-0.015-0.015-0.024-0.033-0.039-0.047c-0.01-0.01-0.023-0.018-0.034-0.028   c-0.016-0.016-0.029-0.031-0.047-0.047c-0.029-0.024-0.061-0.044-0.092-0.066c-0.03-0.022-0.059-0.045-0.091-0.065   c-0.017-0.011-0.031-0.022-0.047-0.032c-0.004-0.001-0.007-0.004-0.01-0.006c-0.01-0.006-0.021-0.008-0.032-0.014   c-0.026-0.014-0.054-0.025-0.08-0.038c-0.026-0.012-0.052-0.027-0.078-0.038c-0.042-0.017-0.085-0.029-0.128-0.042   c-0.029-0.009-0.055-0.016-0.084-0.023c-0.001,0-0.002-0.001-0.004-0.001c-0.003,0-0.006-0.001-0.009-0.002l-1.208-7.712   c0.101-0.151,0.178-0.269,0.215-0.332c0.71-1.185,0.814-2.878-0.374-3.643c-1.97-1.267-3.833,0.865-3.833,0.865   c-3.571,4.29-12.088,13.977-15.858,18.252c-2.135,1.025-3.589,3.004-3.62,5.285h13.91c-0.021-1.582-0.732-3.014-1.876-4.088   c2.414-3.423,8.044-11.412,10.499-14.968l1.021,6.523c-0.104,0.063-0.201,0.133-0.288,0.22c-0.282,0.282-0.444,0.673-0.444,1.073   c0,0.018,0,0.036,0.001,0.057c0.001,0.026,0.002,0.044,0.003,0.059c0.001,0.01,0.002,0.023,0.004,0.035l0.005,0.045l0.004,0.029   c0.003,0.023,0.008,0.051,0.021,0.13c0,0.001,0,0.002,0,0.003c0.054,0.34,0.216,1.371,0.329,2.098   c0.071,0.456,0.343,0.826,0.706,1.051c0.02,0.127,0.039,0.248,0.057,0.363c-1.385,0.598-2.313,1.958-2.313,3.492   c0,0.197,0.016,0.396,0.047,0.597c0.298,1.885,1.918,3.229,3.771,3.229c0.197,0,0.396-0.016,0.595-0.046h0.001   c1.491-0.236,2.646-1.304,3.062-2.655C75.752,21.551,75.472,21.02,74.971,20.866z"
       id="path16"
       style="fill:#003366;fill-opacity:1" /></g></svg>